<svg width="100" height="100" viewBox="0 0 100 100" fill="none" xmlns="http://www.w3.org/2000/svg">
<path d="M51.1625 6.47657C50.4163 6.17754 49.5837 6.17754 48.8375 6.47657L11.5375 21.3953L26.5625 27.4016L65.025 12.0203L51.1625 6.47657ZM73.4375 15.3891L34.975 30.7703L50 36.7766L88.4625 21.3953L73.4375 15.3891ZM93.75 26.0141L53.125 42.2641V91.7766L93.75 75.5266V26.0203V26.0141ZM46.875 91.7828V42.2578L6.25 26.0141V75.5328L46.875 91.7828ZM46.5187 0.670316C48.7535 -0.223439 51.2465 -0.223439 53.4813 0.670316L98.0375 18.4953C98.6168 18.7275 99.1133 19.1278 99.4631 19.6446C99.8129 20.1615 99.9999 20.7712 100 21.3953V75.5328C99.9992 76.7817 99.6243 78.0017 98.9236 79.0355C98.2229 80.0693 97.2285 80.8695 96.0687 81.3328L51.1625 99.2953C50.4163 99.5944 49.5837 99.5944 48.8375 99.2953L3.9375 81.3328C2.77657 80.8705 1.78089 80.0707 1.07901 79.0368C0.377136 78.003 0.00128956 76.7824 0 75.5328L0 21.3953C0.00014525 20.7712 0.187148 20.1615 0.536919 19.6446C0.886689 19.1278 1.3832 18.7275 1.9625 18.4953L46.5187 0.670316Z" fill="#00B357"/>
</svg>
